<?xml version="1.0"?>
<svg xmlns="http://www.w3.org/2000/svg" id="Layer_1" viewBox="0 0 432 64.79">
  <defs>
    <style>.cls-1{fill:#00a1df;}</style>
  </defs>
  <title>Evisions_Logo_RGB</title>
  <path class="cls-1" d="M194.31,310.41c0.89,9.2,7.92,17,19.43,17a26.59,26.59,0,0,0,13.8-4.09,5.7,5.7,0,0,1,8.56,4.85c0,7-15.85,10.23-23.77,10.23-18.53,0-32.33-12.91-32.33-32.46,0-17.89,13-32.33,31.31-32.33,14.44,0,24.92,8.69,28.75,22a29.78,29.78,0,0,1,1.54,8.18,6.68,6.68,0,0,1-6.65,6.64H206.36c-4.22,0-5.61-2.27-5.61-4.82,0-2.89,1.4-4.64,5.61-4.64h22.07c-0.26-7.15-5.11-16.36-17.13-16.36-11.25,0-16.48,8.95-17.12,16.36A37.75,37.75,0,0,0,194.31,310.41Z" transform="translate(-180 -273.6)"/>
  <path class="cls-1" d="M304.48,283.57l-19.43,47.67a10.46,10.46,0,0,1-9.58,6.39h-0.26a10.33,10.33,0,0,1-9.58-6.39l-19.43-47.67a5.57,5.57,0,0,1-.51-2.43,6.82,6.82,0,0,1,6.9-6.64,6.56,6.56,0,0,1,6.26,4.09L275.34,321l16.36-42.3A6.62,6.62,0,0,1,298,274.5a6.79,6.79,0,0,1,7,6.77A5.4,5.4,0,0,1,304.48,283.57Z" transform="translate(-180 -273.6)"/>
  <path class="cls-1" d="M319.83,337.63a6.73,6.73,0,0,1-6.77-6.77V281a6.84,6.84,0,0,1,13.67,0v49.84A6.84,6.84,0,0,1,319.83,337.63Z" transform="translate(-180 -273.6)"/>
  <path class="cls-1" d="M362,338.4c-8.3,0-19.29-2.56-24.16-8.05a5.14,5.14,0,0,1-1.27-3.32,5.92,5.92,0,0,1,5.88-5.75,5.38,5.38,0,0,1,3.07.9,32,32,0,0,0,17,5.5c8,0,12-3.45,12-8.18,0-12-37.31-3.32-37.31-27.09,0-10.1,8.82-18.79,24.54-18.79,8.31,0,17.64,2.56,21.86,7.41a4.6,4.6,0,0,1,1.15,3.07,5.4,5.4,0,0,1-5.5,5.24,5.82,5.82,0,0,1-2.81-.77,26.55,26.55,0,0,0-14.7-4.34c-6.9,0-11.25,3.32-11.25,7.54,0,10.86,37.19,2.68,37.19,27.22C387.69,330,378.62,338.4,362,338.4Z" transform="translate(-180 -273.6)"/>
  <path class="cls-1" d="M404.69,337.63a6.73,6.73,0,0,1-6.77-6.77V281a6.84,6.84,0,0,1,13.67,0v49.84A6.84,6.84,0,0,1,404.69,337.63Z" transform="translate(-180 -273.6)"/>
  <path class="cls-1" d="M453.64,338.4c-19.81,0-31.82-14.7-31.82-32.46s12-32.33,31.82-32.33,31.82,14.7,31.82,32.33S473.45,338.4,453.64,338.4Zm0-52.65c-11.37,0-17.63,9.46-17.63,20.19s6.26,20.32,17.63,20.32,17.51-9.46,17.51-20.32S464.89,285.75,453.64,285.75Z" transform="translate(-180 -273.6)"/>
  <path class="cls-1" d="M544.14,337.63a6.73,6.73,0,0,1-6.77-6.77V298.4c0-9.46-4.86-12.65-12.4-12.65a19.72,19.72,0,0,0-15.6,8.18v36.93a6.84,6.84,0,0,1-6.9,6.77,6.73,6.73,0,0,1-6.77-6.77V281a6.84,6.84,0,0,1,13.67,0v2.56a29,29,0,0,1,21.73-10c13.29,0,19.94,7.29,19.94,19.81v37.44A6.84,6.84,0,0,1,544.14,337.63Z" transform="translate(-180 -273.6)"/>
  <path class="cls-1" d="M586.31,338.4c-8.3,0-19.29-2.56-24.16-8.05a5.14,5.14,0,0,1-1.27-3.32,5.92,5.92,0,0,1,5.88-5.75,5.38,5.38,0,0,1,3.07.9,32,32,0,0,0,17,5.5c8,0,12-3.45,12-8.18,0-12-37.31-3.32-37.31-27.09,0-10.1,8.82-18.79,24.54-18.79,8.31,0,17.64,2.56,21.86,7.41a4.6,4.6,0,0,1,1.15,3.07,5.4,5.4,0,0,1-5.5,5.24,5.82,5.82,0,0,1-2.81-.77,26.55,26.55,0,0,0-14.7-4.34c-6.9,0-11.25,3.32-11.25,7.54,0,10.86,37.19,2.68,37.19,27.22C612,330,602.93,338.4,586.31,338.4Z" transform="translate(-180 -273.6)"/>
</svg>
