<svg width="102" height="89" viewBox="0 0 102 89" fill="none" xmlns="http://www.w3.org/2000/svg">
<path d="M76.5774 5.4472L54.1478 44.3466C52.802 46.7178 49.3414 46.7178 47.9316 44.3466L36.0118 23.6473C35.8195 23.3268 36.0759 22.8783 36.4604 22.8783H50.1745C51.4562 22.8783 52.6097 22.1733 53.2506 21.0839L65.2985 0.256339C65.3626 0.12817 65.5549 0 65.7471 0H73.5655C76.257 0.0640848 77.9873 3.01198 76.5774 5.4472ZM49.6618 14.9317L57.8006 0.833102C57.9929 0.512678 57.7365 0.064085 57.352 0.064085H28.578C25.8223 0.064085 24.092 3.07607 25.5019 5.4472L31.8463 16.4698C31.9104 16.5979 32.1026 16.7261 32.2949 16.7261H46.5858C47.8034 16.662 49.021 16.0212 49.6618 14.9317Z" fill="#6BBF00"/>
<path d="M3 62.5739H7.09358L12.4879 75.7728L17.8823 62.5739H21.9759L14.1713 80.9376H10.8046L3 62.5739Z" fill="#111416"/>
<path d="M34.7501 81.5115C31.3579 81.5115 28.6926 80.6698 26.7542 78.9865C24.8413 77.2776 23.8849 74.8801 23.8849 71.794C23.8849 68.7844 24.7393 66.3996 26.4481 64.6398C28.1825 62.8799 30.6437 62 33.8319 62C35.9488 62 37.7469 62.4081 39.2262 63.2242C40.7055 64.0149 41.815 65.1244 42.5547 66.5527C43.3198 67.9555 43.7024 69.5623 43.7024 71.3732V73.286H27.5576C27.6851 75.0204 28.412 76.3212 29.7383 77.1883C31.0901 78.03 32.9137 78.4508 35.2092 78.4508C36.3824 78.4508 37.5684 78.3488 38.7671 78.1448C39.9659 77.9152 41.0244 77.6219 41.9425 77.2649V80.3637C41.1264 80.6953 40.0424 80.9631 38.6906 81.1671C37.3644 81.3967 36.0508 81.5115 34.7501 81.5115ZM40.0679 70.5697C40.0169 68.8354 39.443 67.4964 38.3463 66.5527C37.2751 65.5835 35.7448 65.0989 33.7554 65.0989C31.817 65.0989 30.3122 65.5962 29.241 66.5909C28.1697 67.5856 27.6086 68.9119 27.5576 70.5697H40.0679Z" fill="#111416"/>
<path d="M47.926 62.5739H51.6753V65.864C52.4404 64.7418 53.5116 63.9129 54.8889 63.3773C56.2917 62.8417 57.9113 62.5739 59.7477 62.5739V65.5962C57.7837 65.5962 56.1004 65.915 54.6976 66.5527C53.2948 67.1903 52.3256 68.1978 51.79 69.575V80.9376H47.926V62.5739Z" fill="#111416"/>
<path d="M66.5486 88.5126C65.1713 88.5126 64.0235 88.3724 63.1054 88.0918V85.0694C63.7685 85.3245 64.5847 85.452 65.5539 85.452C66.4465 85.452 67.1479 85.2225 67.658 84.7634C68.1681 84.3298 68.6272 83.6156 69.0353 82.6209L69.9153 80.4785L61.8811 62.5739H65.8599L71.9812 76.691L77.6816 62.5739H81.6604L73.3967 83.0035C72.6316 84.9164 71.7134 86.3064 70.6422 87.1736C69.5964 88.0663 68.2319 88.5126 66.5486 88.5126Z" fill="#111416"/>
<path d="M90.1533 81.5115C88.8781 81.5115 87.5263 81.3457 86.098 81.0141C84.6697 80.7081 83.5475 80.2872 82.7313 79.7516V76.4614C83.726 77.0481 84.8737 77.5327 86.1745 77.9152C87.4753 78.2723 88.7378 78.4508 89.962 78.4508C91.3393 78.4508 92.3468 78.2851 92.9844 77.9535C93.622 77.6219 93.9408 77.0863 93.9408 76.3467C93.9408 75.7856 93.7878 75.3392 93.4818 75.0076C93.2012 74.6506 92.7038 74.3318 91.9897 74.0512C91.3011 73.7706 90.2553 73.4391 88.8526 73.0565C87.3477 72.6229 86.149 72.1893 85.2563 71.7557C84.3891 71.2966 83.726 70.7228 83.2669 70.0341C82.8333 69.3455 82.6165 68.4528 82.6165 67.3561C82.6165 65.5962 83.3052 64.27 84.6825 63.3773C86.0852 62.4591 87.9599 62 90.3064 62C91.5306 62 92.7293 62.1148 93.9026 62.3443C95.0758 62.5739 96.0195 62.8927 96.7337 63.3008V66.5144C95.994 66.0808 95.0758 65.7365 93.9791 65.4815C92.9079 65.2264 91.8111 65.0989 90.6889 65.0989C89.3372 65.0989 88.3042 65.2647 87.59 65.5962C86.8759 65.9278 86.5188 66.5144 86.5188 67.3561C86.5188 67.8917 86.6719 68.3253 86.9779 68.6569C87.284 68.9884 87.7686 69.2817 88.4317 69.5368C89.1204 69.7663 90.2043 70.0724 91.6836 70.455C94.0046 71.0926 95.6114 71.845 96.5041 72.7122C97.4223 73.5794 97.8814 74.7781 97.8814 76.3084C97.8814 77.8897 97.231 79.1522 95.9302 80.0959C94.6295 81.0396 92.7038 81.5115 90.1533 81.5115Z" fill="#111416"/>
</svg>
